<svg width="390" height="190" viewBox="0 0 390 190" fill="none" xmlns="http://www.w3.org/2000/svg">
<path fill-rule="evenodd" clip-rule="evenodd" d="M122.381 127.181H155.376C162.935 127.181 168.831 125.254 173.253 121.965C177.033 119.168 181.493 113.424 181.493 107.074V104.353C181.493 101.254 179.036 98.4567 177.108 97.0583C174.652 95.2441 169.738 94.2992 168.907 93.5811C173.064 93.4677 178.28 89.8394 180.85 87.8362C183.836 85.4173 186.293 80.6173 186.293 75.2504V74.948C186.293 66.2551 176.541 62.6646 167.395 62.6646H135.949L122.381 127.181ZM147.855 88.7811H156.283C162.822 88.7811 167.697 86.4378 167.697 80.0882V78.8787C167.697 75.4771 164.371 74.3433 160.781 74.3433L150.992 74.3811L147.855 88.7811ZM142.45 114.293V115.502H150.576C157.644 115.502 163.2 113.461 163.2 106.469V104.05C163.2 102.085 159.118 100.157 156.888 100.157H145.474C145.436 101.405 144.453 105.865 144.075 107.187C143.849 107.905 142.45 114.18 142.45 114.293Z" fill="white"/>
<path fill-rule="evenodd" clip-rule="evenodd" d="M187.389 127.181H205.418L210.822 101.972H218.003C223.786 101.972 226.28 103.294 225.525 109.757C224.995 114.217 224.353 119.131 224.353 123.893V127.181H243.553L243.44 122.683L244.12 104.05V102.274C244.12 98.4945 239.282 95.6598 235.125 95.6598H232.743V95.0551C243.024 94.2236 252.246 87.4583 252.246 76.422V73.7386C252.246 66.3307 245.632 62.6646 238.148 62.6646H200.995L187.389 127.181ZM213.392 90.2551H222.539C226.28 90.2551 228.208 89.9905 230.476 88.2897C231.95 87.1937 233.953 84.2834 233.953 81.8646V79.1811C233.953 74.8724 227.717 74.3433 223.143 74.3433H216.529L213.392 90.2551Z" fill="white"/>
<path fill-rule="evenodd" clip-rule="evenodd" d="M247.105 127.181L264.983 127.143L272.013 114.293H298.016L299.603 127.181H320.013C318.879 122.192 317.82 116.22 316.989 111.005C316.271 106.318 314.381 99.2126 314.041 94.7527C313.701 90.5197 311.924 82.9228 311.055 78.5008C310.526 75.9685 309.997 72.7181 309.619 70.3748C309.316 68.8252 308.787 62.6646 307.427 62.6646H286.715C285.694 62.6646 268.951 91.389 266.797 94.6394C264.983 97.285 263.622 100.006 261.959 102.765C260.334 105.449 258.444 108.019 256.894 110.854C253.833 116.485 250.016 121.701 247.105 127.181ZM278.929 102.123L296.428 102.236L293.594 75.0614L278.929 102.123Z" fill="white"/>
<path fill-rule="evenodd" clip-rule="evenodd" d="M269.631 0H149.065L144.567 21.0142H264.529C265.814 21.0142 266.986 12.4724 267.25 10.8472C267.666 8.31496 269.631 2.11654 269.631 0Z" fill="white"/>
<path fill-rule="evenodd" clip-rule="evenodd" d="M109.19 189.846H229.757L234.179 168.869L113.688 168.832L109.19 189.846Z" fill="white"/>
<path fill-rule="evenodd" clip-rule="evenodd" d="M138.104 52.1574L258.822 52.1952C258.86 50.3054 260.372 43.5779 260.863 41.5747C261.165 40.2519 263.887 31.4834 261.808 31.4834H142.488L138.104 52.1574Z" fill="white"/>
<path fill-rule="evenodd" clip-rule="evenodd" d="M115.729 158.362L236.296 158.324L240.567 137.65L120.151 137.688L115.729 158.362Z" fill="white"/>
<path fill-rule="evenodd" clip-rule="evenodd" d="M389.594 63.2315V62.6646H340.649L327.118 127.181H376.403L379.162 114.595H347.868V113.688C347.868 110.173 350.173 104.806 350.287 100.762H379.691V99.8551C379.691 97.663 381.846 91.6157 382.11 88.4787H353.272L355.956 75.2504H386.91L389.594 63.2315Z" fill="white"/>
<path fill-rule="evenodd" clip-rule="evenodd" d="M76.8 64.1387L63.3071 127.181L112.63 127.143L115.2 114.595L83.7922 114.558L86.3622 100.762L115.654 100.725L118.186 88.4789H89.3103L92.0693 75.2505V74.3434L97.2095 74.7214L119.093 74.6458L122.381 74.3056C122.684 73.134 123.061 69.7324 123.477 68.8631C124.158 67.5403 124.498 65.386 124.498 63.5718H78.8788C78.1985 63.5718 77.4048 63.8363 76.8 64.1387Z" fill="white"/>
<path fill-rule="evenodd" clip-rule="evenodd" d="M76.7998 64.1386C77.4045 63.7984 78.1982 63.5338 78.8785 63.5338H124.497C124.497 65.3858 124.157 67.5401 123.477 68.8252C123.061 69.7701 122.683 73.1338 122.381 74.3433L119.093 74.6834L97.1714 74.759L92.0691 74.3811V75.2882H122.986L125.405 62.6646H77.6691C76.7242 62.6646 76.7998 63.1937 76.7998 64.1386Z" fill="white"/>
<path fill-rule="evenodd" clip-rule="evenodd" d="M6.61398 84.5479V86.6644C6.61398 94.1857 13.6817 96.9448 19.4644 99.0991C22.11 100.082 26.4187 100.989 29.3289 101.82C34.7715 103.332 34.2801 102.803 38.4376 105.6C38.4376 109.266 38.6644 111.874 36.0565 113.99C33.9022 115.729 31.2187 116.674 27.3258 116.674C23.2439 116.674 18.3305 115.086 18.3305 111.269V106.772H0.566732L0.0375977 110.702V114.595C0.0375977 123.931 11.7163 128.693 21.6565 128.693H24.6423C33.5242 128.693 41.5368 126.538 46.8659 122.986C51.3258 120 57.6754 112.97 57.6754 105.902V101.405C57.6754 94.677 49.0581 90.6329 43.4644 89.4235C40.0628 88.6676 36.6234 87.6093 33.373 86.6267C30.1604 85.644 25.8518 85.3038 25.8518 80.9574V80.655C25.8518 75.3637 30.9163 72.5668 36.3211 72.5668H37.2281C39.5337 72.5668 42.6329 74.6833 42.6329 77.0644V80.0503C42.6329 80.8818 42.4817 80.8818 42.3305 81.5621H60.0565C61.4171 81.5621 61.2659 78.1605 61.2659 76.7621V74.9479C61.2659 64.8566 51.2124 61.1904 40.8187 61.1904H36.0565C21.5053 61.1904 6.61398 70.5259 6.61398 84.5479Z" fill="white"/>
</svg>
